<?xml version="1.0" standalone="no"?>
<!DOCTYPE svg PUBLIC "-//W3C//DTD SVG 20010904//EN"
 "http://www.w3.org/TR/2001/REC-SVG-20010904/DTD/svg10.dtd">
<svg version="1.0" xmlns="http://www.w3.org/2000/svg"
 width="400.000000pt" height="400.000000pt" viewBox="0 0 400.000000 400.000000"
 preserveAspectRatio="xMidYMid meet">
<metadata>
Created by potrace 1.11, written by Peter Selinger 2001-2013
</metadata>
<g transform="translate(0.000000,400.000000) scale(0.100000,-0.100000)"
fill="#000000" stroke="none">
<path d="M1805 3624 c-383 -58 -706 -215 -960 -469 -225 -225 -382 -516 -445
-823 -25 -124 -41 -316 -33 -394 l6 -58 550 -2 550 -3 18 -51 c53 -157 204
-295 370 -339 76 -21 210 -19 290 3 157 44 300 176 355 327 l22 60 549 3 550
2 6 58 c4 32 2 110 -3 173 -60 738 -566 1323 -1285 1486 -93 21 -141 25 -310
28 -110 2 -213 1 -230 -1z m633 -579 c83 -168 152 -306 152 -308 0 -7 -109
-61 -114 -57 -3 3 -48 94 -100 203 -52 108 -99 197 -105 197 -5 0 -61 -84
-125 -187 -63 -104 -121 -196 -128 -206 -12 -17 -26 2 -143 188 -71 113 -132
208 -135 210 -4 3 -49 -84 -100 -193 -51 -108 -97 -202 -102 -209 -7 -9 -23
-4 -61 19 -29 17 -53 33 -55 34 -5 3 302 604 308 604 3 0 64 -102 136 -227 71
-126 134 -228 139 -228 6 0 68 104 140 232 71 128 132 232 135 233 3 0 74
-137 158 -305z m-293 -709 c76 -34 139 -97 178 -175 29 -60 32 -74 31 -156 0
-78 -4 -98 -29 -149 -58 -122 -173 -198 -307 -205 -94 -4 -157 15 -229 69
-241 181 -172 552 119 636 67 19 170 11 237 -20z"/>
<path d="M1887 2214 c-145 -75 -165 -277 -37 -386 140 -121 356 -37 386 150
14 89 -44 197 -131 241 -58 30 -155 28 -218 -5z m211 -13 c108 -55 150 -176
98 -286 -52 -112 -180 -156 -293 -100 -126 63 -162 228 -71 331 71 81 174 102
266 55z"/>
</g>
</svg>
